#!OML:ASF E:\Style3\Style3.ASF
:FULLY-SPECIFIED
:DEGREES
1881
root -0.851689 17.526 1.03208 -468.348 107.101 -531.211
lowerback 211.104 178.654 179.442
upperback 6.22995 2.16142 2.22885
thorax -10.1282 1.1714 2.00843
lowerneck -1.2947 -2.54016 -6.30101
upperneck -17.4285 1.98609 31.9406
head -5.05871 -0.154517 11.9959
rclavicle -3.97569e-015 -1.12562e-014
rhumerus -60.5238 21.5473 -79.8065
rradius 76.9797
rwrist -27.8795
rhand 27.7084 16.245
rfingers 7.12502
rthumb 51.6354 -4.07475
lclavicle -3.97569e-015 -1.12562e-014
lhumerus -61.1897 -20.2161 87.5459
lradius 81.8803
lwrist 40.3917
lhand 17.9398 39.4215
lfingers 7.12502
lthumb 42.6112 63.8034
rfemur -72.087 4.1789 -4.37045
rtibia 8.63017
rfoot 0.681206 -13.9175
rtoes -26.1072
lfemur -64.4467 -7.20858 -1.64716
ltibia 7.66167
lfoot -0.230902 34.3146
ltoes -25.3466
1882
root -0.862764 17.5299 1.0714 -468.519 107.464 -531.206
lowerback 211.257 178.605 179.389
upperback 6.28063 2.21241 2.25835
thorax -10.149 1.19665 2.05111
lowerneck -1.23812 -2.62304 -6.16036
upperneck -17.5755 1.88256 31.8568
head -5.09298 -0.233068 11.9434
rclavicle -2.8625e-014 -2.45996e-015
rhumerus -60.513 21.6762 -79.7268
rradius 77.1169
rwrist -27.9674
rhand 27.6602 15.9564
rfingers 7.12502
rthumb 51.5916 -4.38878
lclavicle -2.8625e-014 -2.45996e-015
lhumerus -61.0996 -20.2886 87.6347
lradius 81.7987
lwrist 40.3899
lhand 17.8702 39.4161
lfingers 7.12502
lthumb 42.5461 63.8205
rfemur -72.0198 4.44409 -4.66269
rtibia 8.6259
rfoot 0.724568 -14.0061
rtoes -25.8462
lfemur -64.1305 -7.03554 -1.95159
ltibia 7.59789
lfoot 0.990504 34.014
ltoes -27.3835
1883
root -0.871828 17.5358 1.11045 -468.809 107.827 -531.373
lowerback 211.369 178.43 179.269
upperback 6.32508 2.41386 2.42379
thorax -10.1731 1.29343 2.23111
lowerneck -1.27109 -2.76766 -6.18079
upperneck -17.6833 1.63995 31.7038
head -5.06386 -0.358904 11.8904
rclavicle -3.65764e-014 8.3502e-014
rhumerus -60.4931 21.4631 -79.4065
rradius 77.2045
rwrist -27.8609
rhand 27.4944 15.9003
rfingers 7.12502
rthumb 51.4409 -4.53164
lclavicle -3.65764e-014 8.3502e-014
lhumerus -61.0567 -20.5556 88.0049
lradius 81.7538
lwrist 40.4828
lhand 17.9039 39.2472
lfingers 7.12502
lthumb 42.5777 63.6407
rfemur -72.035 4.73053 -4.94393
rtibia 8.64846
rfoot 0.670682 -14.096
rtoes -25.5279
lfemur -63.8063 -6.82451 -2.2423
ltibia 7.50649
lfoot 1.17838 33.8395
ltoes -27.8772
1884
root -0.883317 17.539 1.14905 -468.747 108.181 -531.332
lowerback 211.197 178.379 179.207
upperback 6.34709 2.46038 2.4638
thorax -10.071 1.31575 2.29698
lowerneck -1.22484 -2.84619 -6.00301
upperneck -17.7076 1.49711 31.5595
head -5.05225 -0.44768 11.7955
rclavicle 4.29375e-014 5.62436e-014
rhumerus -60.5182 21.5212 -79.2583
rradius 77.3705
rwrist -27.9716
rhand 27.2273 15.8745
rfingers 7.12502
rthumb 51.1978 -4.6958
lclavicle 4.29375e-014 5.62436e-014
lhumerus -61.0365 -20.7286 88.1431
lradius 81.7951
lwrist 40.5621
lhand 17.8331 39.3424
lfingers 7.12502
lthumb 42.5114 63.7588
rfemur -72.1742 4.89462 -5.24815
rtibia 8.63699
rfoot 0.618651 -14.1992
rtoes -25.3948
lfemur -63.7025 -6.61307 -2.52264
ltibia 7.44659
lfoot 1.4275 33.6876
ltoes -28.138
1885
root -0.89764 17.5377 1.18658 -468.433 108.519 -531.128
lowerback 210.903 178.337 179.133
upperback 6.35408 2.49381 2.53107
thorax -9.92832 1.33261 2.40848
lowerneck -1.07926 -2.9069 -5.83091
upperneck -17.8502 1.40707 31.3678
head -5.10831 -0.523919 11.6934
rclavicle 7.95139e-015 3.44394e-014
rhumerus -60.4269 21.2988 -79.0621
rradius 77.3875
rwrist -27.9209
rhand 27.0271 15.8965
rfingers 7.12502
rthumb 51.0155 -4.77631
lclavicle 7.95139e-015 3.44394e-014
lhumerus -61.0456 -20.8955 88.3194
lradius 81.8032
lwrist 40.6445
lhand 17.5792 39.5176
lfingers 7.12502
lthumb 42.2736 64.0154
rfemur -72.3709 4.97104 -5.55767
rtibia 8.5878
rfoot 0.820249 -14.2487
rtoes -26.1031
lfemur -63.7693 -6.40552 -2.78572
ltibia 7.44684
lfoot 2.14445 33.4628
ltoes -29.2431
1886
root -0.910368 17.5414 1.22541 -468.163 108.823 -530.859
lowerback 210.776 178.291 179.071
upperback 6.38134 2.54204 2.62448
thorax -9.8445 1.35697 2.53474
lowerneck -1.12335 -2.98604 -5.76946
upperneck -17.8745 1.2455 31.1787
head -5.0736 -0.603511 11.6025
rclavicle 7.31528e-014 6.13002e-014
rhumerus -60.3398 20.8846 -78.8199
rradius 77.4221
rwrist -27.731
rhand 27.0596 16.0624
rfingers 7.12502
rthumb 51.0451 -4.59386
lclavicle 7.31528e-014 6.13002e-014
lhumerus -61.1053 -21.0533 88.488
lradius 81.8997
lwrist 40.6554
lhand 17.4293 39.6008
lfingers 7.12502
lthumb 42.1332 64.146
rfemur -72.4506 5.07739 -5.82777
rtibia 8.56648
rfoot 0.988029 -14.3758
rtoes -26.273
lfemur -63.7081 -6.2522 -3.02827
ltibia 7.43876
lfoot 1.6753 33.355
ltoes -28.4216
1887
root -0.921381 17.548 1.26467 -468.146 109.174 -530.753
lowerback 210.774 178.246 178.986
upperback 6.41132 2.57674 2.66137
thorax -9.81642 1.37512 2.61315
lowerneck -1.23565 -3.06422 -5.72551
upperneck -17.7771 1.05766 31.0261
head -4.98314 -0.681851 11.5201
rclavicle 2.06736e-014 -1.07567e-013
rhumerus -60.2351 20.4728 -78.7858
rradius 77.3329
rwrist -27.5811
rhand 27.3261 16.0197
rfingers 7.12502
rthumb 51.2877 -4.49972
lclavicle 2.06736e-014 -1.07567e-013
lhumerus -61.1683 -21.1897 88.5842
lradius 81.9987
lwrist 40.6785
lhand 17.5184 39.4801
lfingers 7.12502
lthumb 42.2167 63.9971
rfemur -72.444 5.27984 -6.12202
rtibia 8.53625
rfoot 1.0357 -14.5381
rtoes -25.9312
lfemur -63.4861 -6.10227 -3.32442
ltibia 7.42986
lfoot 1.30042 33.2041
ltoes -27.7334
